<svg width="200" height="200" viewBox="0 0 200 200" fill="none" xmlns="http://www.w3.org/2000/svg">
<path d="M100 0C44.7581 0 0 44.7581 0 100C0 155.242 44.7581 200 100 200C155.242 200 200 155.242 200 100C200 44.7581 155.242 0 100 0ZM100 38.7097C119.597 38.7097 135.484 54.5968 135.484 74.1936C135.484 93.7903 119.597 109.677 100 109.677C80.4032 109.677 64.5161 93.7903 64.5161 74.1936C64.5161 54.5968 80.4032 38.7097 100 38.7097ZM100 177.419C76.3306 177.419 55.121 166.694 40.9274 149.919C48.5081 135.645 63.3468 125.806 80.6452 125.806C81.6129 125.806 82.5807 125.968 83.5081 126.25C88.75 127.944 94.2339 129.032 100 129.032C105.766 129.032 111.29 127.944 116.492 126.25C117.419 125.968 118.387 125.806 119.355 125.806C136.653 125.806 151.492 135.645 159.073 149.919C144.879 166.694 123.669 177.419 100 177.419Z" fill="#171154"/>
</svg>
