<svg width="18" height="12" viewBox="0 0 18 12" fill="none" xmlns="http://www.w3.org/2000/svg">
<g clip-path="url(#clip0_133_552)">
<path d="M17.6239 1.87759C17.4169 1.13853 16.8069 0.556469 16.0325 0.358938C14.6288 0 9 0 9 0C9 0 3.37127 0 1.96752 0.358938C1.19308 0.5565 0.583143 1.13853 0.376127 1.87759C0 3.21719 0 6.01213 0 6.01213C0 6.01213 0 8.80706 0.376127 10.1467C0.583143 10.8857 1.19308 11.4435 1.96752 11.6411C3.37127 12 9 12 9 12C9 12 14.6287 12 16.0325 11.6411C16.8069 11.4435 17.4169 10.8857 17.6239 10.1467C18 8.80706 18 6.01213 18 6.01213C18 6.01213 18 3.21719 17.6239 1.87759ZM7.15908 8.54972V3.47453L11.8636 6.01219L7.15908 8.54972Z" fill="#171154"/>
</g>
<defs>
<clipPath id="clip0_133_552">
<rect width="18" height="12" fill="white"/>
</clipPath>
</defs>
</svg>
